<svg width="665" height="528" viewBox="0 0 665 528" fill="none" xmlns="http://www.w3.org/2000/svg">
<circle cx="52.5" cy="52.5" r="52.5" fill="#051B4A"/>
<circle cx="192.5" cy="52.5" r="52.5" fill="#353470"/>
<circle cx="332.5" cy="52.5" r="52.5" fill="#295283"/>
<circle cx="472.5" cy="52.5" r="52.5" fill="#7EA0A3"/>
<circle cx="612.5" cy="52.5" r="52.5" fill="#ADD1E2"/>
<circle cx="52.5" cy="193.5" r="52.5" fill="#143F37"/>
<circle cx="52.5" cy="334.5" r="52.5" fill="#380527"/>
<circle cx="52.5" cy="475.5" r="52.5" fill="#942A14"/>
<circle cx="192.5" cy="193.5" r="52.5" fill="#5B5122"/>
<circle cx="192.5" cy="334.5" r="52.5" fill="#8E135C"/>
<circle cx="192.5" cy="475.5" r="52.5" fill="#A45321"/>
<circle cx="332.5" cy="193.5" r="52.5" fill="#489985"/>
<circle cx="332.5" cy="334.5" r="52.5" fill="#D05D59"/>
<circle cx="332.5" cy="475.5" r="52.5" fill="#D37F2E"/>
<circle cx="472.5" cy="193.5" r="52.5" fill="#85A881"/>
<circle cx="472.5" cy="334.5" r="52.5" fill="#E29B88"/>
<circle cx="472.5" cy="475.5" r="52.5" fill="#F3C226"/>
<circle cx="612.5" cy="193.5" r="52.5" fill="#9FD0B6"/>
<circle cx="612.5" cy="334.5" r="52.5" fill="#F9B69D"/>
<circle cx="612.5" cy="475.5" r="52.5" fill="#F2E5C9"/>
</svg>
