<svg width="400" height="480" viewBox="0 0 400 480" fill="none" xmlns="http://www.w3.org/2000/svg">
<rect x="1" y="1" width="398" height="478" fill="white" stroke="black" stroke-width="2"/>
<rect x="1" y="1" width="398" height="173" fill="white" stroke="black" stroke-width="2"/>
<mask id="path-3-inside-1_507_86" fill="white">
<path d="M64 175H33V0H64V175ZM126 175H95V0H126V175ZM188 175H157V0H188V175ZM250 175H219V0H250V175ZM312 175H281V0H312V175ZM374 175H343V0H374V175Z"/>
</mask>
<path d="M64 175H33V0H64V175ZM126 175H95V0H126V175ZM188 175H157V0H188V175ZM250 175H219V0H250V175ZM312 175H281V0H312V175ZM374 175H343V0H374V175Z" fill="white"/>
<path d="M64 175V177H66V175H64ZM33 175H31V177H33V175ZM33 0V-2H31V0H33ZM64 0H66V-2H64V0ZM126 175V177H128V175H126ZM95 175H93V177H95V175ZM95 0V-2H93V0H95ZM126 0H128V-2H126V0ZM188 175V177H190V175H188ZM157 175H155V177H157V175ZM157 0V-2H155V0H157ZM188 0H190V-2H188V0ZM250 175V177H252V175H250ZM219 175H217V177H219V175ZM219 0V-2H217V0H219ZM250 0H252V-2H250V0ZM312 175V177H314V175H312ZM281 175H279V177H281V175ZM281 0V-2H279V0H281ZM312 0H314V-2H312V0ZM374 175V177H376V175H374ZM343 175H341V177H343V175ZM343 0V-2H341V0H343ZM374 0H376V-2H374V0ZM64 175V173H33V175V177H64V175ZM33 175H35V0H33H31V175H33ZM33 0V2H64V0V-2H33V0ZM64 0H62V175H64H66V0H64ZM126 175V173H95V175V177H126V175ZM95 175H97V0H95H93V175H95ZM95 0V2H126V0V-2H95V0ZM126 0H124V175H126H128V0H126ZM188 175V173H157V175V177H188V175ZM157 175H159V0H157H155V175H157ZM157 0V2H188V0V-2H157V0ZM188 0H186V175H188H190V0H188ZM250 175V173H219V175V177H250V175ZM219 175H221V0H219H217V175H219ZM219 0V2H250V0V-2H219V0ZM250 0H248V175H250H252V0H250ZM312 175V173H281V175V177H312V175ZM281 175H283V0H281H279V175H281ZM281 0V2H312V0V-2H281V0ZM312 0H310V175H312H314V0H312ZM374 175V173H343V175V177H374V175ZM343 175H345V0H343H341V175H343ZM343 0V2H374V0V-2H343V0ZM374 0H372V175H374H376V0H374Z" fill="black" mask="url(#path-3-inside-1_507_86)"/>
<circle cx="127" cy="74" r="52" fill="white" stroke="black" stroke-width="2"/>
<path d="M151.5 174.5C146.5 182 141.5 199 141 210C140.5 221 141.402 479 141.402 479H399V174.5H151.5Z" fill="white" stroke="black" stroke-width="2"/>
<path d="M222 247.001C158.5 157.002 1 248.5 1 248.5V478.924H175C175 478.924 285.5 337 222 247.001Z" fill="white" stroke="black" stroke-width="2"/>
</svg>
