<svg width="400" height="480" viewBox="0 0 400 480" fill="none" xmlns="http://www.w3.org/2000/svg">
<rect x="1" y="1" width="398" height="478" fill="white" stroke="black" stroke-width="2"/>
<path d="M184.216 252.452V245.46C184.216 242.516 184.645 240.308 185.504 238.836C186.424 237.364 187.559 236.168 188.908 235.248C190.319 234.328 191.76 233.285 193.232 232.12C195.563 230.403 197.464 228.532 198.936 226.508C200.469 224.484 201.236 221.785 201.236 218.412C201.236 215.529 200.531 212.953 199.12 210.684C197.771 208.353 195.961 206.544 193.692 205.256C191.423 203.907 188.877 203.232 186.056 203.232C183.664 203.232 181.456 203.723 179.432 204.704C177.469 205.624 175.752 206.912 174.28 208.568C172.869 210.163 171.827 212.033 171.152 214.18L168.576 213.168C169.128 211.451 169.925 209.856 170.968 208.384C172.072 206.851 173.391 205.501 174.924 204.336C176.457 203.109 178.175 202.159 180.076 201.484C181.977 200.809 184.032 200.472 186.24 200.472C189.613 200.472 192.649 201.269 195.348 202.864C198.108 204.397 200.285 206.513 201.88 209.212C203.475 211.849 204.272 214.885 204.272 218.32C204.272 220.651 203.904 222.736 203.168 224.576C202.432 226.416 201.389 228.103 200.04 229.636C198.752 231.169 197.219 232.58 195.44 233.868C193.907 235.095 192.527 236.137 191.3 236.996C190.073 237.793 189.092 238.836 188.356 240.124C187.62 241.412 187.252 243.375 187.252 246.012V252.452H184.216ZM186.056 265.424C185.259 265.424 184.584 265.179 184.032 264.688C183.48 264.136 183.204 263.461 183.204 262.664C183.204 261.928 183.48 261.315 184.032 260.824C184.584 260.272 185.259 259.996 186.056 259.996C186.792 259.996 187.436 260.272 187.988 260.824C188.54 261.315 188.816 261.928 188.816 262.664C188.816 263.461 188.54 264.136 187.988 264.688C187.436 265.179 186.792 265.424 186.056 265.424Z" fill="black"/>
</svg>
